<svg width="727.972" height="102.697" viewBox="0 0 192.609 27.172" version="1.1" id="svg1" xml:space="preserve" xmlns="http://www.w3.org/2000/svg">
  <defs id="defs1">
    <style id="style1">
      .cls-2{fill:#fff}
    </style>
  </defs>
  <g id="layer1" transform="translate(-6.995 -134.848)">
    <g id="g1" transform="translate(-39.579 5.556)scale(.26458)">
      <path class="cls-2" d="M266.84 590h-65.37a27.4 27.4 0 0 1-5.4-.59 28 28 0 0 1-5.72-1.85 27 27 0 0 1-5.4-3.24 21.8 21.8 0 0 1-4.56-4.81 23.6 23.6 0 0 1-3.17-6.55 27.7 27.7 0 0 1-1.19-8.4v-49.09a27.4 27.4 0 0 1 .59-5.4 28 28 0 0 1 1.85-5.72 25.7 25.7 0 0 1 3.28-5.4 22.4 22.4 0 0 1 4.84-4.56 23.4 23.4 0 0 1 6.52-3.17 27.3 27.3 0 0 1 8.36-1.19h65.37v18.12h-65.37A7.4 7.4 0 0 0 196 510a7.6 7.6 0 0 0-1.88 5.58v48.92a6.67 6.67 0 0 0 7.32 7.32h65.37z" id="path2"/>
      <path class="cls-2" d="M302.25 590h-18.12V490h18.12z" id="path3"/>
      <path class="cls-2" d="M423.3 582.23a9 9 0 0 1-.73 3.63 9.4 9.4 0 0 1-1.95 2.89 9 9 0 0 1-2.9 1.92 9.2 9.2 0 0 1-3.55.69 10 10 0 0 1-3.38-.62 7.9 7.9 0 0 1-3-2l-66.21-69.13V590h-18.15v-92.2a8.66 8.66 0 0 1 1.57-5.06 9.7 9.7 0 0 1 4-3.38 9.13 9.13 0 0 1 5.29-.52 8.63 8.63 0 0 1 4.67 2.54l66.21 69.07V490h18.13z" id="path4"/>
      <path class="cls-2" d="M534.67 590H469.3a29.2 29.2 0 0 1-8.23-1.32 24.1 24.1 0 0 1-14.6-12.24 25.3 25.3 0 0 1-2.54-11.88v-65.4a9.3 9.3 0 0 1 2.61-6.48 8.4 8.4 0 0 1 2.9-1.95 9.2 9.2 0 0 1 3.62-.7h81.61v18.12h-72.62v56.38a7.4 7.4 0 0 0 1.88 5.44 7.5 7.5 0 0 0 5.51 1.88h65.23zm-8.15-40.84H469.3v-18.29h57.22z" id="path5"/>
      <path class="cls-2" d="M679.77 490 663 583.7a9.5 9.5 0 0 1-2.51 4.81 8.87 8.87 0 0 1-4.74 2.57 9.27 9.27 0 0 1-5.4-.62 8.76 8.76 0 0 1-4-3.49l-33.18-54.5L580 587a8.2 8.2 0 0 1-3.24 3.14 9.2 9.2 0 0 1-4.43 1.11 8.92 8.92 0 0 1-8.85-7.52L546.59 490H565l12 66 28.58-45.58a8.2 8.2 0 0 1 3.24-3.13 9 9 0 0 1 4.42-1.12 8.85 8.85 0 0 1 4.39 1.12 9.36 9.36 0 0 1 3.35 3.13l28.4 45.58 12-66z" id="path6"/>
      <path class="cls-2" d="M785.56 590h-65.37a29 29 0 0 1-8.22-1.32 24 24 0 0 1-14.6-12.24 25.2 25.2 0 0 1-2.55-11.88v-65.4a9.3 9.3 0 0 1 2.61-6.48 8.5 8.5 0 0 1 2.9-1.95A9.2 9.2 0 0 1 704 490h81.61v18.12h-72.67v56.38a7.4 7.4 0 0 0 1.88 5.44 7.5 7.5 0 0 0 5.51 1.88h65.23zm-8.15-40.84h-57.22v-18.29h57.22z" id="path7"/>
      <path class="cls-2" d="M848.7 525.71 879.23 490H904l-43 50.11L903.69 590h-24.6l-30.39-35.4-30.24 35.4h-24.67l42.65-49.83-42.8-50.17h24.54z" id="path8"/>
    </g>
  </g>
</svg>
