<svg viewBox="0 0 856.643 192.842" xml:space="preserve" width="856.643" height="192.842" xmlns="http://www.w3.org/2000/svg" fill="white">
  <path d="M402.554 72.254c-1.43-5.02-.02-7.08 4.75-8.64 10.88-3.56 21.42-8.14 32.12-12.23 1.75-.67 3.66-.94 6.19-1.56v23.75c4.18-4.67 7.45-8.52 10.94-12.16 5.64-5.88 12.02-10.52 20.44-11.55 13.31-1.63 23 9.96 18.89 22.63-2.94 9.07-14.57 11.89-20.27 4.32-7.18-9.55-14.71-6.01-19.93.89-6.28 8.3-10.07 17.45-9.97 28.15.18 18.99.02 37.99.01 56.99-.01 14.46 2.91 17.56 17.28 18.4.81.05 1.62.17 2.72.28v7.94h-118.18v-7.88c2.55-.4 5.17-.66 7.7-1.24 6.92-1.59 10.24-6.03 8.38-12.84-3.2-11.71-7.06-23.24-10.9-34.77-.34-1.03-2.53-2.03-3.86-2.04-17.15-.13-34.31-.16-51.46.04-1.44.02-3.7 1.59-4.15 2.92-3.18 9.29-6.29 18.62-8.83 28.1-3.01 11.2 1.23 17.24 12.58 19.01.8.12 1.6.32 2.68.54v8.26h-51.11v-8.38c12.35-1.12 17.34-10.11 20.76-20.24 17.31-51.28 34.45-102.62 51.69-153.93.77-2.3 1.56-6.01 3.04-6.39 3.75-.97 7.9-.58 11.86-.34.77.05 1.71 1.83 2.1 2.98 13.33 39.77 26.58 79.57 39.88 119.35 4.7 14.05 9.37 28.12 14.34 42.07 1.37 3.85 3.35 7.68 5.86 10.9 3.57 4.58 10.3 5.93 15.44 4.07 5.91-2.13 6.42-7.02 6.42-12.23-.01-26.83 0-53.66-.04-80.49-.02-11.98-2.17-14.12-14.28-14.49-.97 0-1.94-.1-3.09-.19m-79.39-29.21c-.36.03-.72.06-1.08.1-7.87 24.41-15.74 48.83-23.78 73.74h49.27c-8.25-24.96-16.33-49.4-24.41-73.84M247.704.374c-.65 2.82-.87 5.29-1.8 7.45-2.44 5.65-5.4 11.09-7.73 16.78-1.3 3.16-3.14 4.28-6.43 4-2.94-.25-5.93-.05-9.29-.05 2.16 7.3-.58 12.22-6.38 16.38 9.75 4.04 16.86 10.27 20.12 20.23 2.26 6.89 2.42 13.74-.33 20.51-5.74 14.18-18.63 19.99-36.32 16.06v87.68h-9.16v-6.12c.01-27.99.07-55.98-.06-83.97-.01-2.87-.77-5.89-1.88-8.56-2.84-6.83-3.23-13.47.81-20.56H61.124c3.66 7.99 3.22 15.42-.56 22.82-.84 1.65-.72 3.89-.73 5.86-.08 28.32-.11 56.64-.15 84.97v5.72h-8.92v-87.86c-18.04 3.89-31.67-2.02-37.16-15.71-6.4-15.95-.25-29.36 19.05-41.58-5.72-5.87-5.98-6.66-5.14-15.89-4.17 0-8.31.12-12.43-.07-1.31-.06-3.31-.56-3.77-1.47-3.89-7.73-7.53-15.58-11.14-23.44-.36-.79-.05-1.89-.05-3.16 82.4-.02 164.58-.02 247.58-.02m-41.74 81.45c.07-.45-.01-1.04.23-1.41 2.37-3.51 2.31-6.65-1.66-8.8-3.4-1.85-7.26.29-8.96 4.67-2.85 7.35 1.83 16.02 9.7 17.94 10.44 2.55 21.3-4.42 23.4-15 2.95-14.89-9.47-29.01-25.96-29.03-52.12-.06-104.24-.03-156.35.18-10.19.04-18.35 4.81-23.3 13.83-3.84 6.99-3.95 14.47.39 21.4 4.15 6.63 10.41 9.61 18.26 8.96 9.92-.81 16.26-11.22 11.92-19.54-1.95-3.74-5.87-5.4-9.14-3.65-3.91 2.08-4.49 5.03-1.83 8.63.36.49.4 1.22 1.04 3.34-3.03-.24-5.76.27-7.64-.76-3.82-2.09-4.49-6.03-3.57-10.06 1.51-6.66 8.05-11.15 16.43-11.16 50.29-.07 100.57-.07 150.86-.1.83 0 1.67-.03 2.5.05 8.78.85 15.55 7.94 14.59 15.28-.82 6.27-5.94 8.76-10.91 5.23m-193.3-72.87c4.06 11.24 4.06 11.18 14.66 11.17 65.25-.02 130.49-.01 195.74-.02 7.91 0 10.6-2.56 11.67-11.15zm113.05 20.31v.02c-27.29 0-54.59.02-81.88-.03-3.66-.01-7.12.68-7.39 4.85-.27 4.05 3.27 5.37 6.57 6.31.78.22 1.65.14 2.48.14 52.92.01 105.85.04 158.77-.07 2.36 0 5.07-.74 6.98-2.06 1.42-.99 2.78-3.73 2.39-5.24-.41-1.58-2.79-2.92-4.58-3.77-1.23-.58-2.94-.16-4.44-.16-26.31.01-52.6.01-78.9.01m523.39 20.37v19.72c2.46-2.11 4.01-3.4 5.53-4.74 10.71-9.48 22.69-15.76 37.49-14.79 17.01 1.11 28.85 12.23 30.85 29.2.68 5.77.82 11.63.84 17.45.09 22.49.04 44.99.03 67.48 0 14.04.96 15.24 14.71 17.87.12 1.2.32 2.49.34 3.78s-.15 2.58-.25 4.13h-54.86v-8.12c.96-.13 1.75-.24 2.55-.33 9-.97 12.41-4.53 12.46-13.56.1-16.5.04-32.99.04-49.49 0-9 .13-18-.04-26.99-.34-18.48-13.09-27.57-30.25-20.6-6.67 2.71-12.22 8.3-18.06 12.86-1.02.8-1.36 2.98-1.36 4.52-.07 26.33-.12 52.65 0 78.98.05 10.52 2.19 12.43 15.33 14.77v7.75h-56.33v-7.75c1.13-.2 2.36-.49 3.62-.65 9.27-1.12 12.1-4.17 12.11-13.7.04-27.99 0-55.99-.04-83.98-.01-8.1-2.54-10.56-10.82-10.85-1.8-.06-3.6-.17-5.41-.26-1.6-5.04-.48-7.48 4.82-9.22 10.25-3.35 20.12-7.87 30.19-11.81 1.86-.73 3.89-1.01 6.51-1.67m163.34 125.22c-4.92 3.88-9.6 8.18-14.85 11.6-20.54 13.36-48.13 4.82-55.16-16.85-5.11-15.74.23-34.38 14.54-43.96 9.83-6.58 21.19-10.91 31.97-16.03 6.6-3.13 13.52-5.6 20.03-8.91 1.7-.86 3.29-3.69 3.38-5.68.27-6.13.4-12.39-.53-18.42-1.72-11.14-9.52-16.64-21.06-15.77-11.39.86-18.23 7.71-18.74 18.8-.1 2.16.04 4.35-.3 6.47-1.19 7.49-7.05 11.97-14.55 11.27s-11.76-5.64-11.58-13.58c.21-9 4.51-16.15 11.38-21.33 18.71-14.11 39.47-16.18 60.93-7.89 12.91 4.99 19.03 15.58 19.02 29.5-.01 25.49-.03 50.99-.05 76.48 0 2-.06 4 .01 6 .3 8.1 5.08 10.55 12.04 6.2 2.32-1.45 4.67-2.83 7.44-4.5 1.7 10.64-4.46 18.77-15.73 22.43-13.25 4.31-19.88.57-28.19-15.83m.05-62.39-1.32-1.29c-10.22 5.4-20.78 10.25-30.57 16.34-11.14 6.92-14.94 17.83-13.18 30.66 1.78 13.04 10.64 19.56 23.52 17.5 8.51-1.37 21.23-11.92 21.43-18.83.41-14.79.12-29.58.12-44.38m-216.17 32.22c4.86 1.19 6.79 3.22 5.07 8.8-7.16 23.16-22.57 37.18-43.68 38.89-25.15 2.04-45.47-8.59-55.31-31-14.15-32.22-11.64-63.52 9.75-92.01 13.62-18.14 37.86-24.31 58.44-16 18.14 7.32 25.94 22.5 29.33 40.54 1.03 5.47.93 11.15 1.41 17.44h-82.22c.33 19.87 2.44 38.44 18.05 52.05 14.92 13.02 39.48 9.49 51.84-7.02 2.66-3.58 4.76-7.58 7.32-11.69m-76.4-45.85h55.07c-.09-8.39-.8-16.28-4.3-23.66-7.63-16.09-26.86-19.43-39.41-6.68-8.01 8.14-10.55 18.54-11.36 30.34"/>
  <path d="M101.164 189.514h-8.78v-89.1c0-1.5.03-3-.06-4.5-.2-3.36-2.1-5.25-5.37-5.45-3.52-.21-5.69 1.72-6.22 5.16-.3 1.96-.15 3.99-.15 5.99-.01 27.16 0 54.32 0 81.49v6.32h-8.63c-.11-1.5-.32-3.08-.32-4.66-.03-29.16-.05-58.32-.03-87.49.01-9.51 5.87-15.57 15.01-15.71 8.45-.13 14.75 6.29 14.77 15.41.06 29.66.01 59.32-.01 88.99.01.98-.11 1.96-.21 3.55m18.54.08h-8.38c-.13-1.48-.34-2.76-.34-4.04-.01-29.66-.04-59.32.03-88.98.02-8.09 4.04-12.91 11.68-14.5 7.13-1.49 13.71 1.61 16.5 8.03.77 1.77 1.15 3.85 1.16 5.78.08 30.33.08 60.65.08 90.98 0 .79-.16 1.59-.27 2.63h-8.69v-5.48c-.02-27.99-.04-55.99-.07-83.98 0-1.17-.03-2.33 0-3.5.1-3.82-1.74-6.18-5.54-6.24-4.02-.07-6.01 2.29-6.02 6.35-.03 15.66-.11 31.33-.14 46.99-.02 13.5 0 26.99.01 40.49-.01 1.65-.01 3.29-.01 5.47m38.66-.01h-8.24c-.12-1.54-.31-2.83-.32-4.12-.02-29.67-.05-59.33 0-89 .01-6.72 3.27-11.61 8.84-13.79 5.89-2.3 13.06-.94 16.87 3.94 1.84 2.35 3.49 5.63 3.51 8.5.25 31.32.15 62.63.15 94.36h-8.92v-8.41c.01-27.83.03-55.67.03-83.5 0-5.01-2.61-7.82-6.66-7.11-3.86.67-4.98 3.43-4.98 6.96 0 9.5-.04 19-.04 28.5 0 19.5.03 39 .02 58.5-.01 1.76-.18 3.51-.26 5.17"/>
</svg>
