<svg viewBox="0 0 495.52 186.3" xml:space="preserve" width="495.52" height="186.3" xmlns="http://www.w3.org/2000/svg">
  <path d="M293.36 52.11c9.94 0 19-.17 28.04.2 1.21.05 2.87 2.67 3.37 4.38 8.07 27.69 15.97 55.42 23.92 83.15.48 1.67 1 3.32 1.82 6.03.88-2.16 1.5-3.42 1.92-4.75 8.83-28.05 17.73-56.07 26.37-84.18 1.18-3.85 2.86-5.15 6.85-4.96 7.54.34 15.1.1 23.37.1 9.71 30.91 19.42 61.81 29.12 92.7.39.03.77.05 1.16.08 3.19-11.12 6.39-22.24 9.58-33.36 5.23-18.23 10.56-36.43 15.58-54.71 1.01-3.67 2.56-4.94 6.35-4.8 7.92.29 15.87.09 24.71.09-2.89 9.11-5.59 17.65-8.33 26.19-10.58 32.97-21.25 65.92-31.67 98.95-1.27 4.02-3.01 5.53-7.28 5.33-7.73-.36-15.49-.1-23.65-.1-9.99-31.18-19.94-62.2-29.88-93.23l-1.19-.06c-4.02 12.56-8.05 25.12-12.05 37.69-5.4 16.96-10.91 33.88-16.07 50.91-1.11 3.65-2.66 4.91-6.42 4.77-7.74-.28-15.5-.08-23.98-.08-13.78-43.18-27.58-86.35-41.64-130.34M229.64 186.3c-39.5 0-68.09-28.94-68.09-68.94 0-40.09 29.17-69.74 68.45-69.56 38.97.17 67.76 29.8 67.73 69.68-.03 40.18-28.37 68.82-68.09 68.82m40.51-69.25c0-.97.04-1.94-.01-2.91-1.7-32.36-33.56-50.75-60.73-35.06-15.3 8.84-23.01 27.44-19.67 46.81 2.61 15.13 10.59 26.18 24.78 32.02 28.05 11.54 55.74-8.93 55.63-40.86M27.67 182.13H0V0h109.84v26.27h-81.7v53.19h73.65v26.81H27.68c-.01 25.76-.01 50.67-.01 75.86m121.44-.01h-26.83V.06h26.83z" fill="white"/>
</svg>
