<svg viewBox="0 0 877.79 312.99" xml:space="preserve" width="877.79" height="312.99" xmlns="http://www.w3.org/2000/svg" fill="white">
  <path d="M97.55 258.6c12.46-5.77 23.98-11.34 35.73-16.35 2.12-.9 5.35.07 7.85.86 52.06 16.55 103.09-10.53 117.77-62.78 5.14-18.29 3.93-36.52-2.15-54.43-3.87-11.39-10.3-13.28-20.17-6-34.02 25.08-67.99 50.21-101.98 75.32-1.03.76-2.08 1.48-3.77 1.44C197.59 130.46 264.34 64.27 329.15 0c-3.72 5.28-9.2 12.9-14.51 20.63-10.62 15.46-20.31 31.41-24.13 50.11-3.77 18.43-1.94 36.68 2.05 54.87 10.61 48.42-1.14 90.44-37.72 124.23-45.06 41.63-110.49 42.2-157.29 8.76m432.61-133.24h-30.01c-12.81-31.05-44.83-41.89-71.34-24.29-8.65 5.74-14.66 13.76-18.1 23.47-8.8 24.8-8.56 49.15 5.71 71.99 11.15 17.83 33.83 24.82 55.87 18.2 19.48-5.85 32.63-22.45 32.85-42.18h-49.95v-23.87h76.67c.76 21.5.47 42.53-11.03 61.7-6.5 10.84-15.69 18.54-27.34 23.08-20.67 8.05-41.97 9.26-63.28 3.29-23.16-6.48-39.08-21.75-47.6-43.98-9.65-25.18-9.57-50.83.34-75.95 14.2-35.99 51.69-54.64 91.22-46.4 22.68 4.73 40.23 15.95 49.99 37.54 2.35 5.25 3.79 10.91 6 17.4m-426.31 95.68C69.88 251.38 35.38 282.19.89 312.99c-.3-.25-.6-.49-.89-.74 3.48-4.08 6.89-8.23 10.45-12.24 11.32-12.75 23.3-24.97 33.91-38.29 14.48-18.16 17.25-38.04 8.64-60.42-28.62-74.42 18.79-156.02 97.71-168.91 32-5.23 61.72 1.58 89.04 18.94 1.13.72 2.17 1.59 4.22 3.11-12.78 5.9-24.67 11.56-36.76 16.77-1.7.73-4.42-.48-6.53-1.2-34.66-11.77-74.28-1.46-98.65 25.74-24.68 27.54-31.02 67.76-14.98 99.89 4.42 8.86 10.94 16.67 16.8 25.4m723.93-48.84c16.62 21.64 32.81 42.7 50.01 65.09-10.87 0-20.34.23-29.78-.2-1.75-.08-3.69-2.58-5-4.36-10.09-13.74-20.58-27.24-29.82-41.53-5.5-8.51-11.83-11.85-22.24-8.81v54.93c-8.37 0-15.99.18-23.58-.19-1.13-.06-2.88-2.63-3.06-4.19-.44-3.92-.16-7.93-.16-11.91V73.02h26.29v107.6c7.23-8.11 13.22-14.71 19.07-21.43 10.75-12.33 21.28-24.86 32.27-36.96 2.04-2.24 5.78-3.87 8.85-4.08 8.3-.55 16.65-.19 26.7-.19-17.17 18.8-33.15 36.29-49.55 54.24m-82.22 5.41c-.06 29.18-13.96 51.52-38.32 58.98-40.62 12.45-79.99-9.16-80.94-56.85-.58-29.08 11.91-50.98 33.99-59.87 33.76-13.59 84.88-1.5 85.27 57.74m-26.2-.46c-2.34-8.19-3.78-16.78-7.22-24.48-4.96-11.11-14.91-15.92-26.77-15.78-12.6.15-22 6.4-27.01 17.9-6.44 14.8-6.5 30.05-.17 44.93 7.66 18 30.15 23.97 45.84 12.23 11.42-8.56 13.57-21.16 15.33-34.8m-97.01-59.19v22.6h-41.97v96.31h-26.19c-.14-2.35-.39-4.6-.39-6.85-.03-28.94.08-57.89-.12-86.83-.03-4.73 2.19-7.34 5.08-10.68 11.08-12.81 24.77-16.72 41.13-14.7 7.12.88 14.41.15 22.46.15"/>
</svg>
