<svg viewBox="0 0 725.323 197.324" xml:space="preserve" width="725.323" height="197.324" xmlns="http://www.w3.org/2000/svg" fill="white">
  <path d="M637.512 44.92c0 17.6-.33 35.56.1 53.49.37 15.19 9.69 27.57 22.7 31.6 13.66 4.23 29.3-.26 36.71-12.37 3.72-6.08 5.75-13.98 6.12-21.18.86-17.11.28-34.29.28-52.48h21.89v46.23c0 17.21.03 34.41-.01 51.62-.08 35.6-27.99 59.67-64.63 54.89-.26-3.03-.73-6.25-.76-9.47-.03-3.28.38-6.56.35-6.22 13.3-6.41 25.15-10.82 35.37-17.66 4.53-3.04 5.76-11.01 9.46-18.78-10.17 3.39-17.01 6.67-24.2 7.9-34.75 5.91-64.42-18.68-65.51-54.06-.39-12.58-.06-25.18-.06-37.77.02-19.83.77-20.41 22.19-15.74M378.372 0h21.44v43.38c12.45 0 23.64-.54 34.76.11 26.53 1.55 46 18.08 51.93 43.33 5.28 22.52-5.4 47.38-25.55 59.47-33.25 19.95-79.08-1.11-82.02-39.88-2.65-34.96-.56-70.27-.56-106.41m21.82 66.32c0 12.88-.65 24.59.15 36.19 1.17 16.95 16.24 29.63 33.36 29.16 16.92-.47 30.98-13.95 32.21-30.87 1.21-16.69-11.21-32.7-28.01-34.27-11.92-1.1-24.02-.21-37.71-.21m-378.35 88.8v42.18H.792c-.24-3.29-.71-6.86-.71-10.43-.06-30.22-.15-60.44 0-90.67.14-28.42 23.86-51.65 53.48-52.69 28.35-1 53.08 21.16 56.28 50.43 2.92 26.75-17.86 54.92-44.37 58.6-13.98 1.94-28.26 1.75-43.63 2.58m.32-24.34c14.64 0 27.69 1.39 40.31-.35 15.64-2.16 26.67-18.54 25.29-34.09-1.52-17.12-15.56-30.39-32.45-30.68-16.74-.28-31.55 11.78-32.95 28.25-1.02 11.99-.2 24.13-.2 36.87m582.73 21.29c-22.5 0-44.94 2.34-66.66-.59-27.18-3.67-44.55-31.13-41.87-60.1 2.45-26.54 26.47-48.19 53.99-48.68 26.66-.47 51.64 19.67 54.15 46.48 1.94 20.68.39 41.68.39 62.89m-20.44-21.84c-.66-14.05-.07-27.45-2.2-40.4-2.57-15.66-19.01-26.52-34.38-24.82-16.24 1.79-28.79 14.71-29.67 30.55-.94 16.88 9.07 32.32 24.61 34.33 13.01 1.68 26.41.34 41.64.34m-216.92 22.19c-22.94 0-44.42 1.7-65.51-.43-26.2-2.65-46.42-30.37-44.58-57.21 1.98-28.84 26.17-51.77 54.97-52.09 27.45-.31 52.76 21.96 54.67 49.22 1.08 15.47.37 31.06.46 46.6.01 4.15-.01 8.3-.01 13.91m-22.19-21.6c0-12.81.5-24.05-.12-35.23-.97-17.53-16.35-31.28-33.49-30.73-17.28.55-31.8 15.07-32.3 32.29-.51 17.63 12.59 32.51 30.36 33.54 11.21.66 22.48.13 35.55.13"/>
  <path d="M154.332 44.67c22.45-4.63 24.15-4.01 34.89 11.65 4.75 6.92 9.54 13.8 14.35 20.67.47.67 1.19 1.15 3.1 2.95 5.55-7.84 11.05-15.44 16.37-23.17 11.41-16.6 11.4-16.64 35.24-12.14-9.85 14.31-18.74 28.29-28.76 41.4-5.79 7.58-6.1 13.04.04 20.67 11.45 14.19 21.77 29.29 33.51 45.29-15.96 2.62-28.08 2.85-36.25-11.93-5.17-9.37-12.74-17.42-20.39-27.61-7.44 9.74-15.19 17.58-20.15 26.9-8.24 15.49-20.68 15.32-36.73 12.75 11.93-16.33 22.56-31.78 34.21-46.42 5.51-6.93 5.11-11.75.01-18.55-10.17-13.6-19.43-27.91-29.44-42.46m-14.12 108.04h-19.58V43.4h19.58z"/>
</svg>
