<svg width="240" height="240" viewBox="0 0 240 240" fill="none" class="premiere-pro-2025" xmlns="http://www.w3.org/2000/svg">
  <path d="M196.959 0H43.041C19.271 0 0 19.27 0 43.041V196.96C0 220.73 19.27 240 43.041 240H196.96c23.77 0 43.04-19.27 43.04-43.041V43.041C240 19.271 220.73 0 196.959 0" fill="#fff"/>
  <path d="M92.552 63.706c31.373 0 49.042 14.696 49.042 39.299 0 28.732-23.944 40.291-46.4 40.291H80.001v31.043H49.289V63.706ZM80.002 89.96v27.081h13.54c9.413 0 16.017-3.798 16.017-13.375 0-8.752-5.614-13.706-15.356-13.706zm104.409-3.302c6.77 0 12.219.826 14.696 1.651v22.457c-1.982-.495-5.78-.826-8.917-.826-6.109 0-9.577.496-12.715 1.652v62.747h-28.896V93.924c10.402-4.624 20.806-7.266 35.832-7.266" fill="#000"/>
</svg>
