<svg viewBox="0 0 985.37 336.874" xml:space="preserve" width="985.37" height="336.874" xmlns="http://www.w3.org/2000/svg">
  <path d="M95.093 294.804c-13.16 0-26.32-.07-39.47.03-5.3.04-8.94-1.68-11.63-6.71-6.19-11.59-12.79-22.96-19.65-34.17-3.13-5.12-2.81-9.36.25-14.3 6.13-9.9 11.76-20.11 17.77-30.08 1.66-2.76 1.7-4.98.02-7.77-13.47-22.38-26.72-44.89-40.28-67.21-2.68-4.41-2.83-8.17-.27-12.52 7.18-12.18 14.21-24.45 21.28-36.7 2.24-3.88 5.67-5.33 10.01-5.31 12.16.04 24.32-.09 36.47.06 3.18.04 5.08-.81 6.74-3.72 13.7-23.98 27.48-47.91 41.57-71.67 1.33-2.24 4.88-4.41 7.46-4.47 15.64-.42 31.31-.21 46.96-.22 3.67 0 6.15 1.57 8.03 4.84 5.97 10.38 12.31 20.56 18.22 30.98 1.78 3.13 3.75 4.37 7.43 4.35 26.31-.16 52.63-.01 78.95-.16 5.04-.03 8.3 1.52 10.85 6.12 6.43 11.65 13.3 23.07 20.16 34.48 2.33 3.87 2.39 7.33.09 11.2-6.21 10.44-12.15 21.04-18.43 31.44-1.9 3.15-1.68 5.56.19 8.64 13.52 22.36 26.78 44.87 40.35 67.21 3.07 5.06 2.94 9.39-.05 14.37-7.02 11.7-13.85 23.52-20.46 35.46-2.42 4.37-5.63 6-10.5 5.91-11.49-.22-22.98.01-34.47-.14-2.88-.04-4.45.93-5.88 3.45-13.97 24.6-28.11 49.1-42.1 73.69-1.96 3.44-4.64 5-8.48 4.99-15.16-.03-30.31-.04-45.47-.01-3.7.01-6.18-1.59-8.05-4.81-6.33-10.95-12.91-21.75-19.21-32.72-1.96-3.42-4.37-4.82-8.41-4.75-13.32.24-26.65.09-39.97.09-.02.05-.02.09-.02.13m30.04-286.74c-.91 1.3-1.23 1.69-1.48 2.12-13.77 23.75-27.58 47.47-41.18 71.32-.84 1.47-.71 4.29.15 5.81 7.02 12.47 14.22 24.84 21.66 37.06.96 1.57 3.56 3.05 5.41 3.05 57.13.16 114.25.08 171.38.2 4.17.01 6.76-1.07 8.55-5.02 1.99-4.37 4.7-8.42 7.12-12.59 4.06-6.99 8.14-13.97 13.02-22.36h-185.44c1.82-3.16 2.86-5.03 3.96-6.85 5.99-9.99 12.06-19.93 17.91-30 .88-1.52 1.67-4.13.97-5.36-6.98-12.25-14.28-24.33-22.03-37.38m-2.06 239.47c-2.85.14-4.44.29-6.04.29-10.99.02-22 .44-32.96-.14-6.39-.34-9.84 1.84-12.74 7.42-5.47 10.55-11.73 20.7-17.91 31.45 1.52.15 2.31.29 3.1.29 26.48.02 52.95.09 79.43-.1 1.83-.01 4.35-1.58 5.37-3.18 7.13-11.24 13.64-22.87 20.99-33.95 3.55-5.34 3.26-9.24.01-14.67-28.58-47.65-56.86-95.47-85.1-143.32-1.7-2.87-3.59-3.77-6.75-3.73-11.99.15-23.98.06-35.97.09-1.38 0-2.76.28-5.27.55 31.45 53.3 62.4 105.74 93.84 159m46.78 81.16c31.59-53.93 62.63-106.93 94.2-160.83 1.58 2.34 2.54 3.61 3.34 4.97 6.01 10.17 12.07 20.32 17.91 30.59 1.43 2.51 3.06 3.44 5.93 3.4 11.99-.17 23.98-.09 35.97-.15 1.58-.01 3.16-.24 5.07-.4-.36-1.17-.43-1.84-.74-2.36-13.38-22.44-26.72-44.9-40.3-67.22-.95-1.55-3.68-2.82-5.61-2.85-13.99-.26-27.98-.02-41.96-.31-4.02-.08-6.25 1.19-8.27 4.66-15.53 26.77-31.24 53.44-46.95 80.1-13.1 22.22-26.34 44.35-39.34 66.63-1.08 1.84-1.83 5.08-.94 6.67 6.79 12.18 14.02 24.12 21.69 37.1" fill="grey"/>
  <path d="M563.183 244.924c-9.98 0-18.74.09-27.49-.1-1.25-.03-2.66-1.19-3.67-2.16-2.16-2.07-4.37-4.18-6.07-6.61-2.24-3.18-4.37-3.25-7.9-1.81-27.52 11.26-54.95 10.82-80.79-4.12-28.72-16.62-41.28-43.05-40.4-75.68 1-37 17.6-65.4 51.59-80.66 34.18-15.34 68.15-12.81 97.29 12.32 24.9 21.47 30.77 50.42 25.6 81.9-3.3 20.09-13.26 36.75-28.2 50.49-.71.65-1.41 1.31-2.43 2.25 7.27 7.84 14.38 15.48 22.47 24.18m-38.68-41.84c2.25-2.42 4.28-4.38 6.06-6.54 14.05-17.11 18.59-36.91 15.72-58.47-3.84-28.81-26.25-48.5-55.33-48.95-53.67-.82-79.57 49.74-63.28 92.46 11.34 29.74 48.06 44.36 77.72 31.41-10.5-11.19-20.88-22.25-32.18-34.3 9.47 0 17.71-.2 25.92.14 2.14.09 4.73 1.34 6.22 2.91 6.39 6.74 12.46 13.81 19.15 21.34m159.93 44.77c-6.66-21.39-13.31-42.77-20.23-65.01-12.64 22.03-24.91 43.43-37.93 66.12-12.93-39.08-25.43-76.82-38.13-115.2 8.61 0 16.73-.17 24.83.19 1.15.05 2.74 2.51 3.2 4.11 4.94 17.27 9.69 34.6 14.5 51.91.53 1.89 1.13 3.77 2.06 6.89 12.73-22.64 24.92-44.33 37.12-66.03.42.06.84.13 1.26.19 6.26 21.68 12.52 43.35 19.05 65.94 5.8-10.55 11.17-20.4 16.61-30.21 5.49-9.89 10.96-19.79 16.65-29.57.85-1.46 2.77-3.18 4.25-3.23 8.3-.31 16.61-.15 25.95-.15-22.85 38.57-45.32 76.49-67.79 114.42-.48-.13-.94-.25-1.4-.37m97.78-53.33c.56 11.49 4.9 20.02 15.17 23.94 15.54 5.93 29.02 1.92 40.22-10.54 5.75 3.52 11.4 6.98 18.2 11.14-4.47 4.39-8.29 8.93-12.86 12.51-27.16 21.23-70.92 9.86-82.83-21.36-12.67-33.21 7.24-71.51 40.92-78.74 22.76-4.88 43.93 2.94 54.67 20.59 7.29 11.97 8.82 25.22 7.68 38.98-.32 3.84-2.71 3.45-5.22 3.45-23.31.01-46.61.03-69.92.05-1.81-.01-3.61-.02-6.03-.02m55.76-19.97c.63-13.09-9.39-23.22-23.1-23.66-16.06-.52-29.34 10.08-29.62 23.66zm137.94 63.8h-24.26c1.87-13.68 3.73-27 5.48-40.33 1.28-9.73 2.85-19.45 3.47-29.22.86-13.44-6.89-19.78-20.09-17.15-10.81 2.15-18.31 8.55-20.87 19.11-2.69 11.11-4.08 22.55-5.86 33.87-1.58 10.02-2.98 20.07-4.32 30.13-.37 2.82-1.46 3.99-4.46 3.91-6.78-.19-13.56-.06-20.89-.06 4.73-35.18 9.38-69.71 14.07-104.55h24.38c-.2 2.71-.38 5.27-.56 7.66 5.05-2.76 9.84-6.21 15.19-8.09 5.39-1.89 11.35-3.17 17.02-3.04 19.6.46 31.92 12.85 31.12 32.55-.61 15.23-3.32 30.39-5.25 45.56-1.23 9.88-2.75 19.71-4.17 29.65M125.133 8.064c7.75 13.05 15.04 25.12 22.01 37.38.7 1.23-.09 3.84-.97 5.36-5.85 10.07-11.92 20.01-17.91 30-1.09 1.83-2.13 3.69-3.96 6.85h185.44c-4.89 8.39-8.97 15.37-13.02 22.36-2.42 4.17-5.13 8.22-7.12 12.59-1.8 3.95-4.38 5.03-8.55 5.02-57.13-.12-114.25-.04-171.38-.2-1.84-.01-4.45-1.48-5.41-3.05a1279 1279 0 0 1-21.66-37.06c-.86-1.53-.99-4.34-.15-5.81 13.6-23.84 27.41-47.57 41.18-71.32.28-.43.59-.82 1.5-2.12m-2.06 239.47c-31.43-53.26-62.39-105.7-93.84-158.99 2.51-.27 3.89-.55 5.27-.55 11.99-.04 23.98.06 35.97-.09 3.16-.04 5.06.85 6.75 3.73 28.24 47.85 56.52 95.67 85.1 143.32 3.26 5.43 3.54 9.32-.01 14.67-7.36 11.08-13.87 22.71-20.99 33.95-1.01 1.6-3.53 3.16-5.37 3.18-26.48.2-52.95.12-79.43.1-.79 0-1.58-.14-3.1-.29 6.18-10.75 12.44-20.9 17.91-31.45 2.89-5.58 6.35-7.76 12.74-7.42 10.96.59 21.97.17 32.96.14 1.59-.01 3.19-.16 6.04-.3m46.78 81.16c-7.67-12.98-14.91-24.92-21.7-37.11-.89-1.59-.13-4.83.94-6.67 13-22.28 26.24-44.41 39.34-66.63 15.72-26.66 31.42-53.33 46.95-80.1 2.01-3.47 4.24-4.75 8.27-4.66 13.98.29 27.98.04 41.96.31 1.93.04 4.66 1.3 5.61 2.85 13.58 22.32 26.92 44.78 40.3 67.22.31.52.38 1.19.74 2.36-1.91.16-3.49.4-5.07.4-11.99.05-23.98-.02-35.97.15-2.87.04-4.5-.89-5.93-3.4-5.84-10.27-11.9-20.41-17.91-30.59-.8-1.36-1.76-2.63-3.34-4.97-31.56 53.91-62.6 106.9-94.19 160.84" fill="#fff"/>
</svg>
