<svg viewBox="1 0 1233.415 187.697" xml:space="preserve" width="1233.415" height="187.697" xmlns="http://www.w3.org/2000/svg" fill="white">
  <path d="M52.502 100.827c2.96-6.9-1.28-7.8-6.15-8.9-12.39-2.78-23.54-8.18-32.81-17.03-19.6-18.69-17.8-47.51 4.59-62.82 7.28-4.98 15.98-7.99 24.27-11.33 4.77-1.92 9.2.03 12.52 3.9 2.86 3.32 3.65 6.73.96 10.87-4.35 6.72-2.91 11.76 4.04 15.7 7.31 4.15 18.24 4.5 25.55-2.58 32.66-31.64 81.59-31.26 114.08.56 7.76 7.6 20.73 5.67 27.24.1 4.09-3.5 4.72-7.95 1.64-13.03-2.07-3.42-3.06-6.59-.65-10.18 2.6-3.88 6.09-6.18 10.85-5.87 20.66 1.34 42.04 20.33 44.49 40.52 2.26 18.64-7 32.21-22.22 41.45-7.54 4.58-16.31 7.33-24.81 10.03-4.23 1.35-6.49 2.17-5.91 7.39.46 4.12-.47 8.65-1.82 12.64-1.59 4.71-6.31 5-9.24 1.07-6.43-8.6-15.89-11.65-26.5-8.24-3.46 1.11-6.83 2.63-10.07 4.32-26.83 13.98-53.59 13.66-80.38-.11-7.97-4.09-16.2-7.05-25.39-4.66-5.14 1.33-9.52 3.64-12.5 8.37-.88 1.39-3.22 2.85-4.65 2.64-1.74-.25-4.06-1.94-4.64-3.54-1.32-3.66-1.75-7.67-2.49-11.27m841.71 50.75h-33.22V34.697c13.18 0 26.11-.1 39.03.15 1.29.02 2.9 1.91 3.76 3.31 12.25 19.99 24.4 40.05 36.58 60.1.76 1.25 1.57 2.47 3.16 4.97v-68.12h32.59v116.72c-3.51 0-6.79-.01-10.06 0-7.82.02-15.69-.46-23.46.24-6.29.56-9.4-1.96-12.4-7.13-10.16-17.56-20.83-34.81-31.33-52.18-1.16-1.92-2.4-3.79-4.66-5.4.01 21.31.01 42.64.01 64.22m-548.97-117c21.98 0 43.45-.06 64.91.05 5.14.03 10.33.25 15.41 1 32.26 4.82 47.86 39.37 30.17 66.86-2.03 3.16-4.81 5.97-7.71 8.39-2.74 2.3-6.1 3.87-9.57 6 7.85 11.4 15.63 22.68 24.11 34.99-9.18 0-17.36-.86-25.28.2-12.1 1.63-20.23-2.17-25.27-13.46-2.07-4.64-5.74-8.56-8.37-12.99-1.57-2.65-3.49-3.54-6.49-3.43-5.61.21-11.23.06-17.42.06v29.2h-34.48c-.01-38.81-.01-77.49-.01-116.87m34.75 54.86c12.21 0 24.01.24 35.79-.09 6.57-.19 11.03-5.2 11.09-11.27.06-6.16-3.69-11-10.32-11.27-12.08-.5-24.19-.14-36.56-.14zm219.85-54.66h32.99v24.96c11.51-1.48 22.44-3.51 33.44-4.08 6.51-.34 13.33.95 19.7 2.67 23.6 6.37 35.84 24.14 34.3 48.95-1.41 22.67-12.95 37.23-34.91 43.1-18.08 4.84-36.28 4.71-54.17-1-19.27-6.15-30.54-19.92-31.16-40.1-.77-24.61-.19-49.25-.19-74.5m60.28 46.6c-5.58 1.51-10.55 2.31-15.06 4.21-7.5 3.14-11.96 9.06-12.06 17.37-.11 8.52 3.76 15.08 11.46 18.97 9.66 4.88 19.57 5.01 29.38.53 7.54-3.44 11.3-9.72 11.53-17.84.21-7.68-2.8-14.27-9.74-17.86-4.88-2.54-10.47-3.69-15.51-5.38m443.26 61.27c-9.71 4.95-19.57 7.78-29.8 9.22-18.1 2.53-36.17 2.99-53.89-2.46-31.2-9.6-43.99-43.67-26.83-71.58 5.98-9.72 15.46-15.05 25.98-18.31 17.93-5.54 36.11-5.81 54.11-.35 21.27 6.46 32.2 21.48 32.38 43.74.02 2.96 0 5.91 0 9.4h-84.57c.8 5.2 4.05 7.7 7.66 9.74 8.94 5.04 18.83 5.85 28.62 4.7 11.65-1.36 23.16-3.96 35.75-6.21 3.03 6.36 6.66 13.92 10.59 22.11m-32.79-48.54c-3.35-8.94-13.29-13.99-25.83-13.57-11.76.39-21.14 5.75-23.38 13.57zm-537.81-39.68c8.54 1.82 19.12 2.92 28.86 6.37 21.11 7.48 31.93 25.91 29.79 48.23-2.11 21.95-12.73 35.46-33.98 41.09-21.26 5.63-42.63 5.66-63.04-3.7-16.44-7.54-24.16-21.16-24.81-39-.47-13.02 1.68-25.2 11.02-35.17 7.36-7.86 16.75-12.04 26.97-14.22 7.6-1.64 15.43-2.26 25.19-3.6m-2.83 72.18c4.66-.88 8.52-1.22 12.11-2.36 9.1-2.89 14.21-9.66 14.66-18.72.44-8.95-4.05-16.56-12.62-20.21-9.86-4.2-19.85-4.05-29.38 1.06-7.24 3.89-10.64 10.32-10.38 18.52.26 8.18 3.92 14.55 11.5 17.78 4.64 1.99 9.8 2.78 14.11 3.93m644.64 27.72c-8.69-1.09-15.85-1.53-22.81-2.94-27.6-5.59-41.12-23.85-39.08-51.94 1.44-19.77 11.57-32.85 30.13-39.3 18.82-6.54 38.02-6.6 56.97-1.08 24.48 7.13 35.94 25.79 33.22 52.54-2 19.73-12.67 33.01-31.92 38.15-9.06 2.44-18.56 3.25-26.51 4.57m-1.18-72.45c-4.46 1.14-9.11 1.81-13.33 3.53-8.51 3.47-13.03 11.2-12.51 20.14.54 9.32 5.39 16.38 14.54 18.57 6.13 1.46 12.91 2.04 19.09 1.07 13.13-2.04 20.15-13.09 17.35-25.44-2.37-10.41-12.2-17.17-25.14-17.87m-388.52 72.18c-6.46-1.03-15.49-1.7-24.09-3.98-26.29-6.96-35.31-27.1-33.66-50.61 1.53-21.76 13.77-34.67 34.05-40.43 20.46-5.81 40.86-5.36 60.63 3.05 15.02 6.39 23.72 17.9 25.55 34.2 1.28 11.4.65 22.62-5.24 32.93-8.46 14.8-22.49 20.57-38.3 23.16-5.39.89-10.92 1-18.94 1.68m1.81-27.47c4.59-.92 8.44-1.3 12.02-2.5 8.94-2.99 13.9-9.36 14.59-18.84.61-8.34-4.02-16.19-12.37-19.88-10.23-4.52-20.55-4.02-30.16 1.74-6.85 4.11-9.67 10.7-9.15 18.69.5 7.61 4 13.52 10.92 16.61 4.62 2.07 9.77 2.93 14.15 4.18m-645.92 61.11c-30.87-.9-55.47-15.67-73.34-42.36-1.98-2.95-1.2-5.24 1.48-7.28 8.85-6.76 18.57-8.73 29.16-5.03 3.76 1.31 7.41 3.01 10.94 4.85 22.22 11.52 44.34 11.08 66.64.1 5.46-2.69 11.3-4.99 17.23-6.25 8.29-1.76 15.71 1.27 22.24 6.53 2.66 2.14 3.11 4.44 1.18 7.36-17.52 26.5-41.58 41.49-75.53 42.08"/>
</svg>
